<?xml version="1.0" encoding="UTF-8" standalone="no"?>
<svg width="60px" height="61px" viewBox="0 0 60 61" version="1.1" xmlns="http://www.w3.org/2000/svg" xmlns:xlink="http://www.w3.org/1999/xlink" xmlns:sketch="http://www.bohemiancoding.com/sketch/ns">
    <!-- Generator: Sketch Beta 3.2 (9961) - http://www.bohemiancoding.com/sketch -->
    <title>Slice 1</title>
    <desc>Created with Sketch Beta.</desc>
    <defs></defs>
    <g id="Page-1" stroke="none" stroke-width="1" fill="none" fill-rule="evenodd" sketch:type="MSPage">
        <g id="logo" sketch:type="MSLayerGroup" fill="#2C3E50">
            <path d="M30.0048804,0.210885714 C13.4388517,0.210885714 0.00947368421,13.798781 0.00947368421,30.5607095 C0.00947368421,47.3226381 13.4388517,60.9105333 30.0045933,60.9105333 C46.5703349,60.9105333 60,47.3226381 60,30.5607095 C60,13.798781 46.570622,0.210885714 30.0048804,0.210885714 L30.0048804,0.210885714 Z M46.457799,24.5495952 C45.0289952,26.4565714 43.2717703,27.5685143 41.6371292,27.6001762 C37.9955024,27.6719238 34.4184689,27.0116714 34.2680383,26.9834952 L34.7885167,24.1269524 C34.8226794,24.1330524 38.2349282,24.7596095 41.5822967,24.6959952 C42.1699522,24.6846667 43.1982775,24.0923857 44.1703349,22.7948286 C45.5069856,21.0107238 46.0952153,18.7859667 45.6688995,17.1270571 C45.2529187,15.5082333 44.2389474,14.1511286 42.8135885,13.3058429 C41.3933971,12.4634619 39.7349282,12.2322429 38.1447847,12.6534333 C35.0486124,13.4740286 33.6927273,17.2162333 33.5876555,17.5203619 C33.2956938,18.6822667 30.5836364,34.3929619 28.8232536,44.7225857 L28.7994258,44.835581 C28.235311,47.0684714 26.308134,49.8038857 22.5912919,50.7842429 C21.8454545,50.9811857 21.0872727,51.0784952 20.3325359,51.0784952 C18.7501435,51.0784952 17.1818182,50.6509143 15.7653589,49.8149238 C13.6616268,48.573719 12.1690909,46.5903476 11.562488,44.2311 C10.9400957,41.8073667 11.3064115,39.2078952 12.5678469,37.0987476 C13.7979904,35.0418857 15.7541627,33.6089667 18.0757895,33.0637429 C21.0057416,32.3753143 25.2574163,32.7006476 25.4371292,32.714881 L25.214067,35.6109286 C25.1744498,35.6080238 21.2210526,35.3070905 18.7248804,35.8935619 C17.1640191,36.2601429 15.8497608,37.2222 15.0238278,38.6028333 C14.1608612,40.0456286 13.9119617,41.8306048 14.3408612,43.4999714 C14.7533971,45.1051429 15.772823,46.4567286 17.2116746,47.3057905 C18.6433493,48.1502048 20.2969378,48.3875238 21.8666986,47.9735952 C24.345933,47.3194429 25.6254545,45.5887857 26.0044019,44.1674857 C26.7755024,39.6430286 30.4888995,17.9008857 30.8345455,16.6945381 L30.8454545,16.658519 C30.9166507,16.4325286 32.6417225,11.1092619 37.4173206,9.84336667 C39.7507177,9.22465238 42.1825837,9.5648 44.2653589,10.7996143 C46.3530144,12.0379143 47.8383732,14.0253524 48.4475598,16.3959286 C49.2226794,19.4145571 47.9279426,22.5871381 46.457799,24.5495952 L46.457799,24.5495952 Z" id="Shape" sketch:type="MSShapeGroup"></path>
        </g>
    </g>
</svg>