<?xml version="1.0" encoding="UTF-8" standalone="no"?>
<svg width="53px" height="60px" viewBox="0 0 131 147" version="1.1" xmlns="http://www.w3.org/2000/svg" xmlns:xlink="http://www.w3.org/1999/xlink" xmlns:sketch="http://www.bohemiancoding.com/sketch/ns">
    <title>Slice 1</title>
    <description>Created with Sketch (http://www.bohemiancoding.com/sketch)</description>
    <defs></defs>
    <g id="Page-1" stroke="none" stroke-width="1" fill="none" fill-rule="evenodd" sketch:type="MSPage">
        <g id="chrispop_logo_round" sketch:type="MSLayerGroup" transform="translate(0.000000, 1.000000)" fill="#256C9B">
            <path d="M122.828,51.515 C117.851,58.08 111.73,61.908 106.036,62.017 C93.351,62.264 80.891,59.991 80.367,59.894 L82.18,50.06 C82.299,50.081 94.185,52.238 105.845,52.019 C107.892,51.98 111.474,49.941 114.86,45.474 C119.516,39.332 121.565,31.673 120.08,25.962 C118.631,20.389 115.099,15.717 110.134,12.807 C105.187,9.907 99.41,9.111 93.871,10.561 C83.086,13.386 78.363,26.269 77.997,27.316 C76.98,31.316 67.533,85.402 61.401,120.963 L61.318,121.352 C59.353,129.039 52.64,138.456 39.693,141.831 C37.095,142.509 34.454,142.844 31.825,142.844 C26.313,142.844 20.85,141.372 15.916,138.494 C8.588,134.221 3.389,127.393 1.276,119.271 C-0.892,110.927 0.384,101.978 4.778,94.717 C9.063,87.636 15.877,82.703 23.964,80.826 C34.17,78.456 48.98,79.576 49.606,79.625 L48.829,89.595 C48.691,89.585 34.92,88.549 26.225,90.568 C20.788,91.83 16.21,95.142 13.333,99.895 C10.327,104.862 9.46,111.007 10.954,116.754 C12.391,122.28 15.942,126.933 20.954,129.856 C25.941,132.763 31.701,133.58 37.169,132.155 C45.805,129.903 50.262,123.945 51.582,119.052 C54.268,103.476 67.203,28.626 68.407,24.473 L68.445,24.349 C68.693,23.571 74.702,5.245 91.337,0.887 C99.465,-1.243 107.936,-0.072 115.191,4.179 C122.463,8.442 127.637,15.284 129.759,23.445 C132.459,33.837 127.949,44.759 122.828,51.515 L122.828,51.515 Z" id="Shape" sketch:type="MSShapeGroup"></path>
        </g>
    </g>
</svg>