<svg width="53" height="60" viewBox="0 0 131 147" xmlns="http://www.w3.org/2000/svg" xmlns:sketch="http://www.bohemiancoding.com/sketch/ns"><title>Slice 1</title><path d="M122.828 52.515c-4.977 6.565-11.098 10.393-16.792 10.502-12.685.247-25.145-2.026-25.669-2.123l1.813-9.834c.119.021 12.005 2.178 23.665 1.959 2.047-.039 5.629-2.078 9.015-6.545 4.656-6.142 6.705-13.801 5.22-19.512-1.449-5.573-4.981-10.245-9.946-13.155-4.947-2.9-10.724-3.696-16.263-2.246-10.785 2.825-15.508 15.708-15.874 16.755-1.017 4-10.464 58.086-16.596 93.647l-.083.389c-1.965 7.687-8.678 17.104-21.625 20.479-2.598.678-5.239 1.013-7.868 1.013-5.512 0-10.975-1.472-15.909-4.35-7.328-4.273-12.527-11.101-14.64-19.223-2.168-8.344-.892-17.293 3.502-24.554 4.285-7.081 11.099-12.014 19.186-13.891 10.206-2.37 25.016-1.25 25.642-1.201l-.777 9.97c-.138-.01-13.909-1.046-22.604.973-5.437 1.262-10.015 4.574-12.892 9.327-3.006 4.967-3.873 11.112-2.379 16.859 1.437 5.526 4.988 10.179 10 13.102 4.987 2.907 10.747 3.724 16.215 2.299 8.636-2.252 13.093-8.21 14.413-13.103 2.686-15.576 15.621-90.426 16.825-94.579l.038-.124c.248-.778 6.257-19.104 22.892-23.462 8.128-2.13 16.599-.959 23.854 3.292 7.272 4.263 12.446 11.105 14.568 19.266 2.7 10.392-1.81 21.314-6.931 28.07z" sketch:type="MSShapeGroup" fill="#C15649"/></svg>
